# xmcd CD database file
#
# Track frame offsets:
#	151
#	13686
#	28375
#	48114
#	60837
#	75282
#	91631
#	105822
#	124083
#	138766
#	156807
#	177252
#
# Disc length: 2638 seconds
#
# Revision: 0
# Processed by: cddbd v1.4PL0 Copyright (c) Steve Scherf et al.
# Submitted via: CDex 1.51
#
DISCID=7b0a4c0c
DTITLE=Tony Ramey - Time Calling
DYEAR=2001
DGENRE=Country
TTITLE0=Wouldn't You Like To Know
TTITLE1=Love Is Stronger Than That
TTITLE2=True Calling
TTITLE3=I Could Get Used To This
TTITLE4=Out And About
TTITLE5=Tonight Her Memory's Raising Hell
TTITLE6=Summer Rain
TTITLE7=Bigger Man
TTITLE8=Something She Does
TTITLE9=Country Sunday
TTITLE10=Better Way
TTITLE11=Back In The Hills
EXTD=YEAR: 2001
EXTT0=
EXTT1=
EXTT2=
EXTT3=
EXTT4=
EXTT5=
EXTT6=
EXTT7=
EXTT8=
EXTT9=
EXTT10=
EXTT11=
PLAYORDER=
